<svg xmlns="http://www.w3.org/2000/svg" width="41.502" height="34.482" viewBox="0 0 41.502 34.482">
  <g id="Group_8" data-name="Group 8" transform="translate(7517.5 2635.76)">
    <path id="Icon_awesome-hand-holding" data-name="Icon awesome-hand-holding" d="M39.748,23.07a2.327,2.327,0,0,0-3,0l-6.5,5.2a4.476,4.476,0,0,1-2.812.984H19.125a1.125,1.125,0,0,1,0-2.25H24.63a2.341,2.341,0,0,0,2.341-1.87A2.253,2.253,0,0,0,24.75,22.5H13.5a8.275,8.275,0,0,0-5.21,1.849L5.02,27h-3.9A1.128,1.128,0,0,0,0,28.125v6.75A1.128,1.128,0,0,0,1.125,36H26.212a4.505,4.505,0,0,0,2.813-.984l10.631-8.508A2.249,2.249,0,0,0,39.748,23.07Z" transform="translate(-7517 -2637.778)" fill="#111" stroke="#fff" stroke-width="1"/>
    <path id="Icon_awesome-star" data-name="Icon awesome-star" d="M9.83.625,7.536,5.276,2.4,6.024a1.125,1.125,0,0,0-.622,1.918L5.495,11.56l-.878,5.111a1.123,1.123,0,0,0,1.63,1.184l4.591-2.413,4.591,2.413a1.124,1.124,0,0,0,1.63-1.184L16.18,11.56l3.713-3.618a1.125,1.125,0,0,0-.622-1.918L14.14,5.276,11.846.625a1.125,1.125,0,0,0-2.016,0Z" transform="translate(-7498.441 -2635.259)" stroke="#fff" stroke-width="1"/>
  </g>
</svg>
