<svg xmlns="http://www.w3.org/2000/svg" width="29.243" height="29.25" viewBox="0 0 29.243 29.25">
  <g id="Group_7" data-name="Group 7" transform="translate(7476 2585.278)">
    <path id="Icon_ionic-ios-pricetag" data-name="Icon ionic-ios-pricetag" d="M30.6,3.375H21.959a1.017,1.017,0,0,0-.717.3L3.966,20.946a2.029,2.029,0,0,0,0,2.862l8.227,8.227a2.029,2.029,0,0,0,2.862,0L32.323,14.766a1.017,1.017,0,0,0,.3-.717V5.4A2.015,2.015,0,0,0,30.6,3.375Zm-3.354,7.861a2.249,2.249,0,1,1,1.99-1.99A2.252,2.252,0,0,1,27.246,11.236Z" transform="translate(-7479.375 -2588.653)" fill="#fff"/>
    <path id="Icon_awesome-dollar-sign" data-name="Icon awesome-dollar-sign" d="M5.935,6.62l-3.063-.9a.837.837,0,0,1,.235-1.639H4.988a1.731,1.731,0,0,1,.97.3.442.442,0,0,0,.553-.057L7.5,3.361a.46.46,0,0,0-.051-.695,4.011,4.011,0,0,0-2.454-.851V.454A.455.455,0,0,0,4.54,0H3.632a.455.455,0,0,0-.454.454V1.815H3.107A3.108,3.108,0,0,0,.016,5.208a3.247,3.247,0,0,0,2.377,2.74L5.3,8.8a.837.837,0,0,1-.235,1.639H3.184a1.731,1.731,0,0,1-.97-.3.442.442,0,0,0-.553.057l-.987.964a.46.46,0,0,0,.051.695,4.011,4.011,0,0,0,2.454.851v1.362a.455.455,0,0,0,.454.454H4.54a.455.455,0,0,0,.454-.454V12.7a3.2,3.2,0,0,0,3-2.062A3.115,3.115,0,0,0,5.935,6.62Z" transform="translate(-7459.201 -2577.855) rotate(47)"/>
  </g>
</svg>
